<svg xmlns="http://www.w3.org/2000/svg" width="256" height="256" viewBox="0 0 256 256" role="img" aria-label="ExecLedger Pro">
  <defs>
    <linearGradient id="g" x1="0" y1="0" x2="1" y2="1">
      <stop offset="0%" stop-color="#F4C75B"/>
      <stop offset="100%" stop-color="#0EA5E9"/>
    </linearGradient>
    <radialGradient id="glow" cx="50%" cy="34%" r="66%">
      <stop offset="0%" stop-color="rgba(255,255,255,0.24)"/>
      <stop offset="100%" stop-color="rgba(255,255,255,0)"/>
    </radialGradient>
    <filter id="shadow" x="-20%" y="-20%" width="140%" height="140%">
      <feDropShadow dx="0" dy="12" stdDeviation="14" flood-color="rgba(0,0,0,0.42)"/>
    </filter>
  </defs>
  <rect x="14" y="14" rx="56" ry="56" width="228" height="228" fill="#080b15"/>
  <rect x="18" y="18" rx="52" ry="52" width="220" height="220" fill="url(#g)" opacity="0.95"/>
  <rect x="18" y="18" rx="52" ry="52" width="220" height="220" fill="#05070f" opacity="0.38"/>
  <circle cx="128" cy="98" r="78" fill="url(#glow)"/>
  <g opacity="0.78">
    <rect x="40" y="40" width="20" height="20" rx="6" fill="rgba(255,255,255,0.16)"/>
    <rect x="68" y="40" width="20" height="20" rx="6" fill="rgba(255,255,255,0.10)"/>
    <rect x="96" y="40" width="20" height="20" rx="6" fill="rgba(255,255,255,0.16)"/>
  </g>
  <rect x="34" y="34" rx="46" ry="46" width="188" height="188" fill="none" stroke="rgba(255,255,255,0.18)" stroke-width="2"/>
  <path d="M44 168 C78 146, 100 188, 128 164 S182 138, 212 166" fill="none" stroke="rgba(255,255,255,0.14)" stroke-width="4" stroke-linecap="round"/>
  <g filter="url(#shadow)">
    <rect x="48" y="60" rx="28" ry="28" width="160" height="112" fill="rgba(4,8,18,0.54)" stroke="rgba(255,255,255,0.14)" stroke-width="2"/>
    <text x="128" y="128" text-anchor="middle" fill="#fff8e1" font-family="Inter, Arial, sans-serif" font-size="34" font-weight="800" letter-spacing="2">ELP</text>
  </g>
  <rect x="58" y="186" rx="14" ry="14" width="140" height="26" fill="rgba(255,255,255,0.12)" stroke="rgba(255,255,255,0.12)" stroke-width="1"/>
  <text x="128" y="203" text-anchor="middle" fill="rgba(255,248,225,0.92)" font-family="Inter, Arial, sans-serif" font-size="11" font-weight="700" letter-spacing="1.2">0S LAUNCHER</text>
</svg>