<svg xmlns="http://www.w3.org/2000/svg" width="256" height="256" viewBox="0 0 256 256" role="img" aria-label="NorthStar Office &amp; Accounting">
  <defs>
    <linearGradient id="northstarGradient" x1="0" y1="0" x2="1" y2="1">
      <stop offset="0%" stop-color="#14B8A6"/>
      <stop offset="100%" stop-color="#F4C75B"/>
    </linearGradient>
    <radialGradient id="northstarGlow" cx="50%" cy="34%" r="66%">
      <stop offset="0%" stop-color="#FFFFFF" stop-opacity="0.26"/>
      <stop offset="100%" stop-color="#FFFFFF" stop-opacity="0"/>
    </radialGradient>
    <filter id="northstarShadow" x="-25%" y="-25%" width="150%" height="150%">
      <feDropShadow dx="0" dy="12" stdDeviation="14" flood-color="#000000" flood-opacity="0.42"/>
    </filter>
  </defs>
  <rect x="14" y="14" width="228" height="228" rx="56" ry="56" fill="#080B15"/>
  <rect x="18" y="18" width="220" height="220" rx="52" ry="52" fill="url(#northstarGradient)" fill-opacity="0.96"/>
  <rect x="18" y="18" width="220" height="220" rx="52" ry="52" fill="#05070F" fill-opacity="0.40"/>
  <circle cx="128" cy="98" r="78" fill="url(#northstarGlow)"/>
  <g opacity="0.80">
    <rect x="40" y="40" width="20" height="20" rx="6" fill="#FFFFFF" fill-opacity="0.16"/>
    <rect x="68" y="40" width="20" height="20" rx="6" fill="#FFFFFF" fill-opacity="0.10"/>
    <rect x="96" y="40" width="20" height="20" rx="6" fill="#FFFFFF" fill-opacity="0.16"/>
  </g>
  <rect x="34" y="34" width="188" height="188" rx="46" ry="46" fill="none" stroke="#FFFFFF" stroke-opacity="0.18" stroke-width="2"/>
  <path d="M44 168 C78 146, 100 188, 128 164 S182 138, 212 166" fill="none" stroke="#FFFFFF" stroke-opacity="0.14" stroke-width="4" stroke-linecap="round"/>
  <g filter="url(#northstarShadow)">
    <rect x="48" y="60" width="160" height="112" rx="28" ry="28" fill="#040812" fill-opacity="0.58" stroke="#FFFFFF" stroke-opacity="0.16" stroke-width="2"/>
    <text x="128" y="128" text-anchor="middle" fill="#FFF8E1" font-family="Inter, Arial, sans-serif" font-size="34" font-weight="800" letter-spacing="2">NSA</text>
  </g>
  <rect x="58" y="186" width="140" height="26" rx="14" ry="14" fill="#FFFFFF" fill-opacity="0.12" stroke="#FFFFFF" stroke-opacity="0.12" stroke-width="1"/>
  <text x="128" y="203" text-anchor="middle" fill="#FFF8E1" fill-opacity="0.92" font-family="Inter, Arial, sans-serif" font-size="11" font-weight="700" letter-spacing="1.2">0S LAUNCHER</text>
</svg>
